<svg id="visual" viewBox="0 0 1200 600" width="1200" height="600" xmlns="http://www.w3.org/2000/svg" xmlns:xlink="http://www.w3.org/1999/xlink" version="1.1"><rect x="0" y="0" width="1200" height="600" fill="#c6d7e4"></rect><defs><linearGradient id="grad1_0" x1="50%" y1="100%" x2="100%" y2="0%"><stop offset="10%" stop-color="#50a232" stop-opacity="1"></stop><stop offset="90%" stop-color="#50a232" stop-opacity="1"></stop></linearGradient></defs><defs><linearGradient id="grad1_1" x1="50%" y1="100%" x2="100%" y2="0%"><stop offset="10%" stop-color="#50a232" stop-opacity="1"></stop><stop offset="90%" stop-color="#3cc4be" stop-opacity="1"></stop></linearGradient></defs><defs><linearGradient id="grad1_2" x1="50%" y1="100%" x2="100%" y2="0%"><stop offset="10%" stop-color="#c6d7e4" stop-opacity="1"></stop><stop offset="90%" stop-color="#3cc4be" stop-opacity="1"></stop></linearGradient></defs><defs><linearGradient id="grad2_0" x1="0%" y1="100%" x2="50%" y2="0%"><stop offset="10%" stop-color="#50a232" stop-opacity="1"></stop><stop offset="90%" stop-color="#50a232" stop-opacity="1"></stop></linearGradient></defs><defs><linearGradient id="grad2_1" x1="0%" y1="100%" x2="50%" y2="0%"><stop offset="10%" stop-color="#3cc4be" stop-opacity="1"></stop><stop offset="90%" stop-color="#50a232" stop-opacity="1"></stop></linearGradient></defs><defs><linearGradient id="grad2_2" x1="0%" y1="100%" x2="50%" y2="0%"><stop offset="10%" stop-color="#3cc4be" stop-opacity="1"></stop><stop offset="90%" stop-color="#c6d7e4" stop-opacity="1"></stop></linearGradient></defs><g transform="translate(1200, 600)"><path d="M-210 0C-207.4 -29.5 -204.8 -59 -189.4 -78.5C-174 -97.9 -145.8 -107.1 -127.3 -127.3C-108.8 -147.4 -100 -178.4 -80.4 -194C-60.8 -209.6 -30.4 -209.8 0 -210L0 0Z" fill="#88cede"></path><path d="M-140 0C-138.3 -19.7 -136.5 -39.4 -126.3 -52.3C-116 -65.2 -97.2 -71.4 -84.9 -84.9C-72.5 -98.3 -66.6 -118.9 -53.6 -129.3C-40.5 -139.7 -20.3 -139.9 0 -140L0 0Z" fill="#1fb682"></path><path d="M-70 0C-69.1 -9.8 -68.3 -19.7 -63.1 -26.2C-58 -32.6 -48.6 -35.7 -42.4 -42.4C-36.3 -49.1 -33.3 -59.5 -26.8 -64.7C-20.3 -69.9 -10.1 -69.9 0 -70L0 0Z" fill="#50a232"></path></g><g transform="translate(0, 0)"><path d="M210 0C183.8 17.4 157.6 34.9 151.5 62.8C145.4 90.7 159.4 129 148.5 148.5C137.5 167.9 101.6 168.4 72.7 175.5C43.8 182.6 21.9 196.3 0 210L0 0Z" fill="#88cede"></path><path d="M140 0C122.5 11.6 105.1 23.2 101 41.8C97 60.4 106.3 86 99 99C91.7 112 67.7 112.3 48.5 117C29.2 121.8 14.6 130.9 0 140L0 0Z" fill="#1fb682"></path><path d="M70 0C61.3 5.8 52.5 11.6 50.5 20.9C48.5 30.2 53.1 43 49.5 49.5C45.8 56 33.9 56.1 24.2 58.5C14.6 60.9 7.3 65.4 0 70L0 0Z" fill="#50a232"></path></g></svg>